PathFileType	4	(X/Y/Z)	\\147.46.242.158\로컬 디스크 (e)\MOCAP Data\Iguana Capture\iguana\Project 2\Capture day 7\Session 2\Take13.trc
DataRate	CameraRate	NumFrames	NumMarkers	Units	OrigDataRate	OrigDataStartFrame	OrigNumFrames
120.0	120.0	17	23	mm	120.0	41	7542
Frame#	Time	ana:head1			ana:head2			ana:bone1			ana:bone2			ana:bone3			ana:tail1			ana:tail2			ana:tail3			ana:tail4			ana:Rforefoot1			ana:Rforefoot2			ana:Rforefoot3			ana:Lforefoot1			ana:Lforefoot2			ana:Lforefoot3			ana:RhindLeg1			ana:RhindLeg2			ana:RhindLeg3			ana:RhindLeg4			ana:LhindLeg1			ana:LhindLeg2			ana:LhindLeg3			ana:LhindLeg4			
		X1	Y1	Z1	X2	Y2	Z2	X3	Y3	Z3	X4	Y4	Z4	X5	Y5	Z5	X6	Y6	Z6	X7	Y7	Z7	X8	Y8	Z8	X9	Y9	Z9	X10	Y10	Z10	X11	Y11	Z11	X12	Y12	Z12	X13	Y13	Z13	X14	Y14	Z14	X15	Y15	Z15	X16	Y16	Z16	X17	Y17	Z17	X18	Y18	Z18	X19	Y19	Z19	X20	Y20	Z20	X21	Y21	Z21	X22	Y22	Z22	X23	Y23	Z23	

5420	45.158	463.01825	180.55362	52.60977	452.99261	183.56860	53.57838	432.59302	191.58980	44.95102	412.86249	210.10590	37.86083	400.13776	238.02716	24.51186	392.23825	266.87326	15.10297	377.57626	300.25229	8.50999	356.89468	336.73489	6.02391	334.87311	372.93329	4.23859	430.83292	174.49857	31.63192	420.84207	163.06374	27.30416	436.35397	155.35419	20.03570	439.69470	195.26106	23.83442	436.90195	198.24989	10.20644	430.03647	184.53471	1.95671	390.40619	234.33102	18.00787	373.68906	225.41504	16.01673	374.15796	239.71230	2.84536	374.08572	227.51196	2.96546	408.88217	240.47836	18.46568	426.55145	238.29852	18.72825	421.02017	248.84358	1.16772	430.65256	243.81322	1.60271	
5421	45.167	464.21179	180.88220	52.44387	454.21167	183.86858	53.43359	433.76166	191.64583	45.03816	413.40131	209.83258	38.00454	400.24469	237.56470	24.68882	392.23056	266.36700	15.22045	377.73303	299.76456	8.62044	357.14035	336.27341	6.03282	335.29984	372.60489	4.22248	432.56961	174.53036	31.49205	423.83710	162.05760	26.98382	440.32303	155.82629	20.55624	440.31119	195.53035	23.71974	437.10825	198.40331	10.08602	430.51160	184.55696	1.86460	390.68069	233.70689	18.18490	373.73868	225.30191	15.99331	374.26938	239.56682	2.71842	373.96860	227.61494	2.95887	409.13617	240.12471	18.64622	426.77829	238.30707	18.63483	421.04449	248.81633	1.24493	430.72333	243.79039	1.61360	
5422	45.175	465.42789	181.16055	52.29836	455.44894	184.12622	53.28315	434.94012	191.73183	45.15725	413.99524	209.51451	38.16176	400.42389	236.94580	24.93233	392.30765	265.79016	15.36388	377.92468	299.25073	8.70160	357.43555	335.75983	6.05914	335.78845	372.22134	4.25267	434.39450	174.49879	31.35308	426.99939	161.20370	26.51285	444.09845	156.46153	20.68906	440.94867	195.74312	23.63048	437.35349	198.51285	9.98745	431.18625	184.79544	1.50598	390.99585	233.10124	18.38413	373.82318	225.17499	15.98067	374.45911	239.42229	2.48265	373.73697	227.94881	2.95552	409.46689	239.76279	18.85639	427.03174	238.33659	18.52143	421.07333	248.78322	1.33257	430.77747	243.75711	1.61644	
5423	45.183	466.70609	181.37691	52.19461	456.66702	184.35487	53.10352	436.12088	191.76941	45.26521	414.67026	209.18083	38.35318	400.71826	236.24422	25.23211	392.43198	265.14505	15.59551	378.15335	298.67804	8.78851	357.76273	335.24854	6.11104	336.30499	371.81543	4.31992	436.26419	174.49887	31.19903	430.31580	160.50626	25.98722	447.63339	157.21313	20.31423	441.61734	195.82780	23.49580	437.42377	198.51175	10.09913	431.70453	184.89725	1.23728	391.34979	232.51636	18.62160	373.95786	225.04115	15.96472	374.67154	239.27057	2.26536	373.48114	228.32939	2.95590	409.85693	239.40500	19.13429	427.32925	238.38144	18.39145	421.10229	248.75046	1.41416	430.85623	243.74121	1.67997	
5424	45.192	468.02072	181.53398	52.09842	457.94034	184.51579	52.95945	437.38959	191.79852	45.37627	415.47772	208.82753	38.59209	401.15042	235.49246	25.59318	392.60455	264.46234	15.92556	378.41260	298.07358	8.91114	358.12656	334.74442	6.19932	336.82156	371.34726	4.41136	438.16696	174.49660	31.04344	433.67834	160.07089	25.36014	450.97116	158.07115	19.47682	442.32709	195.83640	23.36711	437.42883	198.40930	10.33570	432.17255	184.83730	1.14254	391.74625	231.97787	18.89668	374.18103	224.91927	15.98581	374.78180	239.23982	2.17411	373.26218	228.66028	2.96853	410.29813	239.02489	19.41330	427.67746	238.44362	18.23662	421.12668	248.71648	1.47517	430.94281	243.74831	1.76351	
5425	45.200	469.37686	181.62544	51.97482	459.23343	184.62454	52.76687	438.71802	191.80772	45.47992	416.39774	208.45859	38.83218	401.62183	234.81088	26.00332	392.82520	263.78192	16.30906	378.69153	297.44547	9.07535	358.52118	334.21353	6.30551	337.32950	370.86115	4.51830	440.10211	174.46004	30.89419	436.92239	159.93958	24.63352	454.04175	159.01407	18.17036	443.09479	195.79062	23.22185	437.44635	198.24701	10.70400	432.54187	184.70706	1.26447	392.22888	231.40619	19.20639	374.50323	224.75638	16.05162	374.87735	239.32057	2.18568	373.13040	228.87071	2.96844	410.76865	238.63055	19.66389	428.05258	238.49879	18.03403	421.14597	248.69086	1.51390	431.05411	243.78270	1.87197	
5426	45.208	470.77396	181.64395	51.81216	460.56476	184.69093	52.54696	440.06140	191.80130	45.51756	417.46414	208.07556	39.07079	402.07910	234.22218	26.51169	393.08658	263.11609	16.73133	378.99039	296.78787	9.29961	358.94977	333.66074	6.44240	337.86139	370.33914	4.62955	442.00064	174.38480	30.72042	439.90811	160.06946	23.77135	456.76535	160.00079	16.44127	443.93033	195.69336	23.03911	437.55222	198.07759	11.10475	432.69266	184.13939	1.67559	392.77905	230.82828	19.53005	374.89948	224.60823	16.16962	374.92203	239.44878	2.33514	373.09329	228.93643	2.94824	411.24893	238.19566	19.89109	428.47632	238.54665	17.79630	421.15460	248.67805	1.52352	431.19940	243.83345	1.98293	
5427	45.217	472.22687	181.61182	51.61080	461.97357	184.69661	52.30436	441.46725	191.70078	45.48151	418.60519	207.66029	39.26846	402.44275	233.68269	27.09634	393.43002	262.48236	17.18560	379.30063	296.14993	9.60530	359.41565	333.05408	6.59306	338.44229	369.79474	4.73419	443.88266	174.27824	30.50017	442.50195	160.42841	22.73249	459.04541	160.97789	14.28543	444.85400	195.59126	22.85541	437.88223	197.93536	11.42250	432.79669	183.32236	2.28446	393.40778	230.22215	19.87331	375.35931	224.43309	16.33942	375.10364	239.50487	2.52356	373.14627	228.82315	2.94055	411.74167	237.72847	20.06693	428.90549	238.61928	17.53693	421.16403	248.67598	1.53647	431.33664	243.88696	2.04022	
5428	45.225	473.76794	181.53667	51.36723	463.46286	184.64066	52.06271	442.87408	191.52911	45.36203	419.83115	207.20685	39.41066	402.89343	233.21194	27.66523	393.84427	261.86493	17.63622	379.63882	295.49545	9.97459	359.92029	332.43054	6.76094	339.09634	369.23245	4.83266	445.57828	174.16173	30.16647	444.63766	160.92757	21.49740	460.77145	161.83272	11.88207	445.82635	195.45311	22.63796	438.56256	197.81740	11.52931	432.86917	182.35995	2.85820	394.08640	229.60207	20.22757	375.88016	224.22092	16.57822	375.32968	239.42618	2.73611	373.22919	228.66098	2.91619	412.27612	237.22391	20.23494	429.35828	238.69695	17.26060	421.17352	248.68289	1.55522	431.46024	243.93187	2.05458	
5429	45.233	475.37469	181.42955	51.05302	465.00278	184.59868	51.76313	444.30920	191.21306	45.13641	421.18369	206.70113	39.51245	403.51773	232.79054	28.23021	394.32480	261.20758	18.10808	380.01358	294.78958	10.39075	360.46646	331.75809	6.95697	339.86395	368.63806	4.90129	447.10587	174.13161	29.71314	446.33987	161.40623	20.22589	461.99347	162.48534	9.45395	446.86227	195.30322	22.41903	439.47601	197.77470	11.58494	433.00095	181.37700	3.39379	394.84314	228.92657	20.60792	376.46048	223.97516	16.86308	375.54590	239.24239	3.01885	373.29001	228.49620	2.93083	412.85953	236.69278	20.40850	429.81036	238.81856	17.01385	421.17584	248.69620	1.58325	431.51468	243.95221	1.97691	
5430	45.242	477.03833	181.27615	50.68057	466.58130	184.53435	51.38338	445.79535	190.86635	44.87518	422.65271	206.15381	39.59526	404.40842	232.14673	28.70388	394.86774	260.50302	18.58940	380.40900	294.07474	10.83828	361.09811	331.02786	7.19022	340.75806	368.02341	4.95641	448.46448	174.08357	29.19535	447.51022	161.85852	18.82849	462.75519	162.80029	7.23146	447.98248	195.13388	22.19312	440.71286	197.79962	11.47648	433.51437	180.86307	3.58637	395.67090	228.20595	21.01776	377.10410	223.67429	17.17281	375.69583	239.04988	3.37973	373.31696	228.33714	3.05586	413.55377	236.22020	20.68130	430.27682	238.95593	16.78431	421.17813	248.70801	1.63557	431.48459	243.98120	1.80164	
5431	45.250	478.72037	181.06712	50.24807	468.22672	184.40546	50.97728	447.36545	190.41968	44.59432	424.16132	205.57361	39.66167	405.45496	231.41487	29.02094	395.41745	259.74341	19.10641	380.86649	293.26846	11.27137	361.79370	330.29480	7.43796	341.79056	367.42694	4.99875	449.76315	174.01668	28.56824	448.30200	162.12387	17.60507	463.10480	162.96393	5.39169	449.22583	194.99362	22.00345	442.00638	197.86026	11.45554	434.31744	180.76025	3.63476	396.56973	227.40250	21.44242	377.83978	223.32352	17.50512	375.76425	238.81726	3.86824	373.26602	228.18974	3.28412	414.34082	235.83775	21.06940	430.76514	239.09238	16.58181	421.17804	248.71661	1.70172	431.46176	244.00343	1.67167	
5432	45.258	480.41125	180.77794	49.81763	469.91943	184.15251	50.57993	449.00681	189.91953	44.32580	425.69519	204.96414	39.73804	406.66791	230.50693	29.22669	395.95660	258.91922	19.64230	381.39514	292.41327	11.69124	362.59912	329.56180	7.72440	342.96738	366.82492	5.02451	451.05780	173.84024	27.95996	448.75443	162.25459	16.61682	463.17007	163.03291	4.01491	450.63876	194.93350	21.94133	443.36075	197.88573	11.46590	435.62375	180.94914	3.64827	397.54904	226.55162	21.86199	378.70572	222.93712	17.83222	375.72400	238.62018	4.48925	373.19406	228.01709	3.54833	415.20343	235.38446	21.44857	431.24771	239.23929	16.35073	421.16742	248.71368	1.76456	431.45874	244.03351	1.60071	
5433	45.267	482.09363	180.37958	49.42230	471.63467	183.78400	50.19090	450.72778	189.33539	44.14100	427.20648	204.32730	39.82139	407.96249	229.44603	29.38683	396.54541	258.01218	20.12776	382.01733	291.48242	12.05365	363.51187	328.76877	7.98107	344.25189	366.21136	5.03239	452.39389	173.54019	27.41937	449.06396	162.21548	15.93234	463.04630	163.09900	3.11267	452.24408	194.97108	22.09028	444.76291	197.80634	11.55993	437.59537	181.69295	3.51555	398.60370	225.66455	22.27092	379.71359	222.48163	18.15765	375.73474	238.42552	5.13840	373.10898	227.85632	3.80876	416.12140	234.85260	21.76083	431.71994	239.37738	16.08071	421.16400	248.70699	1.83045	431.49045	244.06305	1.59984	
5434	45.275	483.77399	179.87808	49.11092	473.35568	183.27742	49.88568	452.40765	188.73218	43.98074	428.75433	203.67636	39.90374	409.20715	228.43755	29.57856	397.18167	257.08298	20.54464	382.73785	290.46808	12.36160	364.50998	327.92441	8.17432	345.59082	365.58383	5.01543	453.70856	173.05244	27.04432	449.28265	162.08109	15.51589	462.87003	163.20047	2.60534	454.03534	195.02278	22.48070	446.24634	197.59483	11.75782	440.10208	182.76460	3.25700	399.72290	224.77856	22.65307	380.84030	221.95329	18.45731	375.82196	238.15012	5.72654	373.11069	227.74683	3.90787	417.03345	234.18315	21.96420	432.16327	239.55814	15.79766	421.16168	248.69754	1.87154	431.55109	244.08708	1.64789	
5435	45.283	485.45602	179.28236	48.90862	475.06827	182.63637	49.68102	454.12088	188.08157	43.88968	430.32184	203.01234	39.96215	410.26889	227.54945	29.79885	397.91364	256.11453	20.93799	383.53421	289.44601	12.60831	365.58359	326.99545	8.26994	346.95395	364.85654	4.95509	455.07254	172.40201	26.81735	449.52527	161.87834	15.31789	462.74924	163.31160	2.33620	456.02106	194.98918	23.07064	447.98315	197.71712	12.41597	442.82870	184.25974	2.73403	400.88458	223.95927	23.00204	382.03207	221.40512	18.73141	376.12024	237.76500	6.22748	373.15698	227.69292	3.88819	417.94617	233.39131	22.06478	432.58820	239.73361	15.49475	421.17621	248.68225	1.92188	431.62177	244.10709	1.73071	
5436	45.292	487.14642	178.59323	48.83386	476.76434	181.86380	49.58699	455.82654	187.38863	43.84897	431.97937	202.34795	40.01936	411.42987	226.71751	30.01180	398.72452	255.10916	21.29801	384.41080	288.42889	12.81690	366.69394	326.00797	8.26017	348.27448	364.03522	4.84248	456.32925	171.66545	26.71858	449.81570	161.75507	15.24261	462.64737	163.41083	2.15525	458.14120	194.74422	23.77549	450.08673	198.17130	13.45962	445.74008	186.28302	2.14368	402.10129	223.07437	23.36883	383.29306	220.77719	18.99175	376.52823	237.27939	6.74076	373.32755	227.70345	3.75625	418.87665	232.52745	22.11311	433.00360	239.90517	15.20006	421.20578	248.66068	1.99487	431.66406	244.12068	1.78124	
